# xmcd
#
# Track frame offsets: 
#        150
#        17930
#        35607
#        54695
#        74940
#        96902
#        110822
#        131465
#        148925
#        162642
#        175717
#
# Disc length: 2564 seconds
#
# Revision: 6
# Processed by: cddbd v1.5.2PL0 Copyright (c) Steve Scherf et al.
# Submitted via: ExactAudioCopy v0.95b3
#
DISCID=af0a020b
DTITLE=Chicago - If You Leave Me Now
DYEAR=1983
DGENRE=Slow Rock
TTITLE0=If You Leave Me Now
TTITLE1=Saturday In The Park
TTITLE2=Feelin' Stronger Everyday
TTITLE3=(I've Been) Searchin' So Long
TTITLE4=25 Or 6 To 4
TTITLE5=Baby, What A Big Surprise
TTITLE6=Wishing You Were Here
TTITLE7=No Tell Lover
TTITLE8=Another Rainy Day In New York City
TTITLE9=Does Anybody Really Know What Time It Is?
TTITLE10=Song For You
EXTD=
EXTT0=
EXTT1=
EXTT2=
EXTT3=
EXTT4=
EXTT5=
EXTT6=
EXTT7=
EXTT8=
EXTT9=
EXTT10=
PLAYORDER=
